<svg xmlns="http://www.w3.org/2000/svg" width="32" height="32" viewBox="0 0 32 32" fill="none">
  <!-- Sygnet HL based on Figma 57:432 -->
  <path d="M4 2L8 2C10 2 11 4 11 6V14H21V6C21 4 22 2 24 2H28C30 2 31 4 31 6V26C31 28 30 30 28 30H24C22 30 21 28 21 26V18H11V26C11 28 10 30 8 30H4C2 30 1 28 1 26V6C1 4 2 2 4 2Z" fill="#016977"/>
  <rect x="5.5" y="4" width="2" height="2" transform="rotate(45 5.5 4)" fill="white"/>
  <rect x="15.5" y="4" width="2" height="2" transform="rotate(45 15.5 4)" fill="white"/>
  <rect x="25.5" y="4" width="2" height="2" transform="rotate(45 25.5 4)" fill="white"/>
</svg>